<?xml version="1.0" encoding="UTF-8" standalone="no"?>
<!-- Created with Inkscape (http://www.inkscape.org/) -->

<svg
   width="85.049538mm"
   height="69.737556mm"
   viewBox="0 0 85.049538 69.737556"
   version="1.1"
   id="svg1"
   inkscape:export-filename="../Downloads/filehub.png"
   inkscape:export-xdpi="96"
   inkscape:export-ydpi="96"
   inkscape:version="1.4.2 (ebf0e940d0, 2025-05-08)"
   sodipodi:docname="filehub.svg"
   xmlns:inkscape="http://www.inkscape.org/namespaces/inkscape"
   xmlns:sodipodi="http://sodipodi.sourceforge.net/DTD/sodipodi-0.dtd"
   xmlns="http://www.w3.org/2000/svg"
   xmlns:svg="http://www.w3.org/2000/svg">
  <sodipodi:namedview
     id="namedview1"
     pagecolor="#ffffff"
     bordercolor="#000000"
     borderopacity="0.25"
     inkscape:showpageshadow="2"
     inkscape:pageopacity="0.0"
     inkscape:pagecheckerboard="0"
     inkscape:deskcolor="#d1d1d1"
     inkscape:document-units="mm"
     inkscape:zoom="1.4142136"
     inkscape:cx="126.92566"
     inkscape:cy="-14.849242"
     inkscape:window-width="1920"
     inkscape:window-height="981"
     inkscape:window-x="0"
     inkscape:window-y="0"
     inkscape:window-maximized="1"
     inkscape:current-layer="layer1"
     showgrid="false" />
  <defs
     id="defs1" />
  <g
     inkscape:label="Layer 1"
     inkscape:groupmode="layer"
     id="layer1"
     transform="translate(-39.817195,-52.31)">
    <path
       style="fill:#8ba9c5;fill-opacity:1;stroke-width:0.869318"
       d="m 75.725938,115.09008 c -1.176048,-0.28806 -2.073036,-0.80632 -2.982452,-1.72319 -2.59022,-2.61149 -2.474208,-6.64976 0.26414,-9.1946 1.538292,-1.42959 3.735539,-1.97275 5.946978,-1.47012 l 0.810552,0.18422 3.719948,-3.752819 3.719958,-3.752822 0.107525,-2.026958 c 0.05913,-1.114822 0.111,-2.621217 0.116611,-3.34754 0.03289,-4.258988 -0.01135,-0.181198 0.0091,-7.835343 v -2.93276 h 4.041349 4.041349 l 0.06646,-0.321891 c 0.506582,-2.453068 1.216014,-6.26906 1.216014,-6.54083 0,-0.153651 -0.280162,-0.354772 -0.79232,-0.568793 -1.675402,-0.700119 -3.064685,-2.506279 -3.467314,-4.507738 -0.528231,-2.625846 0.952315,-5.618607 3.397625,-6.867906 2.546208,-1.300852 5.156869,-0.919944 7.096259,1.035383 3.21038,3.23673 2.41328,8.351607 -1.60104,10.273643 l -1.05124,0.503336 -0.2452,1.673359 c -0.13488,0.920356 -0.335491,2.188387 -0.445832,2.817864 -0.110345,0.629467 -0.23828,1.434191 -0.284304,1.788265 l -0.08373,0.643776 2.933746,-0.05064 2.93372,-0.05064 -0.0307,2.806831 c -0.0168,1.543755 0.008,2.847183 0.0582,2.8965 0.0752,0.07586 4.56382,-0.35124 6.42519,-0.611384 l 0.58268,-0.08143 0.17605,-0.99317 c 0.36513,-2.059994 1.7215,-3.820318 3.65513,-4.74373 0.90286,-0.431167 1.06082,-0.459953 2.52401,-0.459953 1.46317,0 1.62113,0.02879 2.524,0.459953 4.03284,1.925911 5.01858,7.000104 1.98476,10.217084 -2.44868,2.596541 -6.77418,2.548554 -9.26128,-0.102771 l -0.75821,-0.808286 -1.64345,0.222906 c -0.90387,0.122606 -2.71295,0.333719 -4.02018,0.469155 l -2.37677,0.246239 0.003,4.089909 0.003,4.089921 0.3864,0.438513 c 0.21251,0.241177 1.32725,1.362156 2.47723,2.491054 l 2.09083,2.052543 0.81804,-0.18777 c 1.73674,-0.39868 3.836,-0.11053 5.17476,0.71031 1.39697,0.85652 2.62058,2.61944 2.95933,4.26366 0.55778,2.70741 -0.9246,5.63828 -3.49767,6.91539 -0.84226,0.41805 -1.12426,0.48226 -2.33328,0.53121 -2.04354,0.0828 -3.49207,-0.40027 -4.78507,-1.5956 -1.31995,-1.22027 -2.02291,-2.79473 -2.01906,-4.52224 0.003,-1.0918 0.30293,-2.5009 0.70111,-3.28779 l 0.27873,-0.55081 -1.94542,-1.96405 c -1.06995,-1.08022 -2.66136,-2.60514 -3.53646,-3.388723 l -1.59107,-1.4247 -5.02782,0.06911 -5.027812,0.06911 -2.533428,2.625233 c -1.39339,1.44391 -3.085243,3.2279 -3.759679,3.9645 l -1.22625,1.33924 0.261246,0.4469 c 0.672425,1.15032 0.859857,2.97813 0.478666,4.66789 -0.749264,3.32131 -4.303331,5.48567 -7.65847,4.66385 z m 2.737427,-3.96656 c 1.454867,-0.71007 1.876446,-2.61593 0.86532,-3.9119 -1.108236,-1.42048 -3.566767,-1.12078 -4.360107,0.5315 -0.357061,0.74365 -0.380982,1.35412 -0.08139,2.07706 0.60779,1.46659 2.115674,2.01615 3.576152,1.30334 z m 35.197335,-1.1859 c 1.2881,-0.67847 1.78935,-2.13811 1.16081,-3.38028 -0.92844,-1.8348 -3.63175,-1.81013 -4.5207,0.0413 -0.61381,1.27834 -0.23186,2.47237 1.04703,3.27318 0.51605,0.32312 1.75725,0.35844 2.31286,0.0658 z m -15.686595,-16.481554 3.370045,-0.08691 v -3.32332 c 0,-1.827816 -0.0418,-4.203406 -0.0931,-5.279081 l -0.093,-1.955781 -4.908808,0.03762 -4.908831,0.03762 -0.116161,5.20028 c -0.0639,2.86014 -0.08303,5.287393 -0.04249,5.393858 0.05818,0.152889 0.42575,0.179822 1.747975,0.128079 0.920858,-0.03601 3.190808,-0.104603 5.044332,-0.152373 z m 21.957235,-7.181722 c 0.75865,-0.368738 1.15859,-1.185281 1.10183,-2.249722 -0.0563,-1.054674 -0.4564,-1.695854 -1.29938,-2.081834 -0.73685,-0.337384 -1.42067,-0.338082 -2.14248,-0.0019 -1.31883,0.613668 -1.87298,2.091417 -1.26701,3.378808 0.3108,0.660368 0.6627,0.943075 1.44429,1.160291 0.7613,0.211579 1.43691,0.14743 2.16276,-0.205344 z M 99.605272,68.288487 c 0.703648,-0.296411 1.020088,-0.601439 1.330098,-1.282091 0.47971,-1.0532 0.28263,-1.960602 -0.58586,-2.697371 -0.898553,-0.762294 -2.1414,-0.793578 -3.13834,-0.079 -1.291032,0.925374 -1.015294,3.231528 0.475321,3.97542 0.72076,0.359704 1.211614,0.380943 1.918781,0.08302 z"
       id="path1"
       sodipodi:nodetypes="cssscccssscccssssssscsscccccsscssscsscsscccsscsssssscscsscccsscssccssssssssssssccsccccsssccccscssccsssssss" />
    <path
       style="font-style:italic;font-weight:800;font-size:92.7742px;font-family:'Open Sans';-inkscape-font-specification:'Open Sans, Ultra-Bold Italic';font-variation-settings:'wght' 500;fill:none;fill-opacity:1;stroke:#326898;stroke-width:3.69178;stroke-linejoin:bevel;stroke-dasharray:none;stroke-opacity:1"
       d="M 58.55032,120.20167 H 41.626362 L 55.00105,54.15589 H 92.311672 L 89.411653,68.476349 H 69.024995 L 66.514535,81.08016 H 85.386264 L 82.399682,95.490969 H 63.441387 Z"
       id="text1"
       aria-label="F"
       sodipodi:nodetypes="ccccccccccc" />
  </g>
</svg>
